:FULLY-SPECIFIED
:FORCE-ALL-JOINTS-BE-3DOF
:DEGREES
544
root 7.47898 14.9658 -3.83436 -177.726 56.7911 178.323
lfemur -28.0825 -5.51905 -20.3415
ltibia 73.6075 -0 0
lfoot -35.2874 1.65716 0.0574808
ltoes -5.94267 0 0
rfemur -47.4174 -5.21403 -1.11473
rtibia 51.5737 -0 0
rfoot 0.871013 5.50439 -0.0234975
rtoes -40.8509 0 0
lowerback 11.473 0.997236 0.388579
upperback 5.40323 2.13434 6.57673
thorax -0.988651 1.25724 6.40873
lowerneck -4.32336 -15.9843 -6.24646
upperneck 12.3079 -21.5747 6.53512
head 5.83836 -10.3678 1.37714
lclavicle 6.76838e-14 4.09594e-14 -8.7178e-30
lhumerus -42.8751 -19.8145 105.967
lradius 59.0331 -0 0
lwrist 23.5915 0 0
lhand -22.1747 -5.14845 0.00175828
lfingers 7.12502 -0 0
lthumb 4.24008 24.7885 0.00165771
rclavicle 6.76838e-14 4.09594e-14 -8.7178e-30
rhumerus 15.0729 12.1116 -83.6224
rradius 137.695 -0 0
rwrist -50.0993 0 0
rhand -30.1471 -24.6102 0.0352794
rfingers 7.12502 -0 0
rthumb -3.45937 -54.5497 0.0336303
545
root 7.46703 15.0101 -3.82624 -177.544 57.3718 178.402
lfemur -27.735 -5.43509 -20.3118
ltibia 72.7014 -0 0
lfoot -35.2028 1.90825 0.0611914
ltoes -5.56174 0 0
rfemur -47.525 -5.45046 -0.65363
rtibia 51.3624 -0 0
rfoot 1.15573 5.47389 -0.0250145
rtoes -40.5687 0 0
lowerback 11.3274 0.945706 0.3067
upperback 5.30661 2.03927 6.47904
thorax -0.998072 1.2034 6.36317
lowerneck -4.3546 -15.9061 -6.17639
upperneck 12.2385 -21.4693 6.49257
head 5.80347 -10.3195 1.36741
lclavicle 6.57056e-14 3.93303e-14 -9.28024e-30
lhumerus -42.8201 -19.7069 105.581
lradius 58.9153 -0 0
lwrist 23.5477 0 0
lhand -22.1473 -5.12471 0.00187173
lfingers 7.12502 -0 0
lthumb 4.26651 24.8117 0.00176467
rclavicle 6.57056e-14 3.93303e-14 -9.28024e-30
rhumerus 15.4929 12.2545 -83.326
rradius 137.573 -0 0
rwrist -49.9548 0 0
rhand -30.0142 -24.512 0.0375561
rfingers 7.12502 -0 0
rthumb -3.33104 -54.4529 0.0358005
546
root 7.45508 15.0544 -3.81813 -177.357 57.9523 178.486
lfemur -27.3875 -5.35131 -20.2815
ltibia 71.7952 -0 0
lfoot -35.1181 2.15934 0.0645312
ltoes -5.18081 0 0
rfemur -47.6347 -5.68601 -0.191898
rtibia 51.1512 -0 0
rfoot 1.44044 5.44338 -0.0263799
rtoes -40.2864 0 0
lowerback 11.1818 0.893969 0.224953
upperback 5.21016 1.94403 6.38152
thorax -1.00745 1.14956 6.31762
lowerneck -4.38574 -15.828 -6.1064
upperneck 12.1691 -21.364 6.44991
head 5.76857 -10.2713 1.35765
lclavicle 6.37275e-14 3.77012e-14 -9.78643e-30
lhumerus -42.7659 -19.599 105.196
lradius 58.7976 -0 0
lwrist 23.504 0 0
lhand -22.12 -5.10096 0.00197382
lfingers 7.12502 -0 0
lthumb 4.29294 24.8349 0.00186092
rclavicle 6.37275e-14 3.77012e-14 -9.78643e-30
rhumerus 15.9138 12.3952 -83.0283
rradius 137.452 -0 0
rwrist -49.8103 0 0
rhand -29.8814 -24.4139 0.0396051
rfingers 7.12502 -0 0
rthumb -3.2027 -54.356 0.0377536
547
root 7.44314 15.0987 -3.81001 -177.166 58.5326 178.576
lfemur -27.0401 -5.26772 -20.2507
ltibia 70.889 -0 0
lfoot -35.0335 2.41044 0.0675001
ltoes -4.79988 0 0
rfemur -47.7462 -5.92068 0.270478
rtibia 50.9399 -0 0
rfoot 1.72516 5.41286 -0.0275937
rtoes -40.0042 0 0
lowerback 11.0363 0.842024 0.143339
upperback 5.11387 1.84864 6.28417
thorax -1.01678 1.09571 6.27208
lowerneck -4.41677 -15.7498 -6.03648
upperneck 12.0996 -21.2587 6.40714
head 5.73367 -10.2231 1.34786
lclavicle 6.17493e-14 3.60722e-14 -1.02364e-29
lhumerus -42.7125 -19.4907 104.811
lradius 58.6799 -0 0
lwrist 23.4603 0 0
lhand -22.0926 -5.07722 0.00206458
lfingers 7.12502 -0 0
lthumb 4.31937 24.8581 0.00194649
rclavicle 6.17493e-14 3.60722e-14 -1.02364e-29
rhumerus 16.3357 12.5338 -82.7295
rradius 137.33 -0 0
rwrist -49.6658 0 0
rhand -29.7485 -24.3158 0.0414264
rfingers 7.12502 -0 0
rthumb -3.07436 -54.2591 0.0394899
548
root 7.43119 15.1431 -3.80189 -176.97 59.1128 178.67
lfemur -26.6926 -5.18432 -20.2195
ltibia 69.9828 -0 0
lfoot -34.9488 2.66154 0.070098
ltoes -4.41895 0 0
rfemur -47.8597 -6.15444 0.733514
rtibia 50.7287 -0 0
rfoot 2.00987 5.38234 -0.0286558
rtoes -39.722 0 0
lowerback 10.8909 0.789873 0.0618578
upperback 5.01775 1.75307 6.18699
thorax -1.02608 1.04185 6.22655
lowerneck -4.44768 -15.6715 -5.96663
upperneck 12.0301 -21.1534 6.36427
head 5.69877 -10.1749 1.33805
lclavicle 5.97712e-14 3.44431e-14 -1.06301e-29
lhumerus -42.66 -19.3821 104.427
lradius 58.5622 -0 0
lwrist 23.4166 0 0
lhand -22.0652 -5.05347 0.00214399
lfingers 7.12502 -0 0
lthumb 4.3458 24.8813 0.00202135
rclavicle 5.97712e-14 3.44431e-14 -1.06301e-29
rhumerus 16.7586 12.6703 -82.4294
rradius 137.208 -0 0
rwrist -49.5214 0 0
rhand -29.6156 -24.2176 0.0430202
rfingers 7.12502 -0 0
rthumb -2.94602 -54.1622 0.0410091
549
root 7.41924 15.1874 -3.79378 -176.768 59.6929 178.77
lfemur -26.3451 -5.1011 -20.1877
ltibia 69.0767 -0 0
lfoot -34.8642 2.91264 0.0723249
ltoes -4.03802 0 0
rfemur -47.9752 -6.38728 1.19722
rtibia 50.5174 -0 0
rfoot 2.29459 5.35181 -0.0295662
rtoes -39.4397 0 0
lowerback 10.7456 0.737515 -0.0194895
upperback 4.9218 1.65735 6.08997
thorax -1.03533 0.987982 6.18103
lowerneck -4.47848 -15.5932 -5.89684
upperneck 11.9606 -21.0483 6.32129
head 5.66386 -10.1267 1.3282
lclavicle 5.7793e-14 3.2814e-14 -1.09676e-29
lhumerus -42.6082 -19.2732 104.043
lradius 58.4444 -0 0
lwrist 23.3729 0 0
lhand -22.0378 -5.02972 0.00221205
lfingers 7.12502 -0 0
lthumb 4.37223 24.9045 0.00208553
rclavicle 5.7793e-14 3.2814e-14 -1.09676e-29
rhumerus 17.1824 12.8045 -82.1281
rradius 137.086 -0 0
rwrist -49.3769 0 0
rhand -29.4827 -24.1195 0.0443863
rfingers 7.12502 -0 0
rthumb -2.81767 -54.0654 0.0423113
550
root 7.4073 15.2317 -3.78566 -176.561 60.2727 178.876
lfemur -25.9976 -5.01808 -20.1554
ltibia 68.1705 -0 0
lfoot -34.7795 3.16375 0.0741807
ltoes -3.65709 0 0
rfemur -48.0926 -6.61919 1.66161
rtibia 50.3062 -0 0
rfoot 2.5793 5.32128 -0.030325
rtoes -39.1575 0 0
lowerback 10.6003 0.68495 -0.100703
upperback 4.82601 1.56146 5.99311
thorax -1.04453 0.934108 6.13551
lowerneck -4.50918 -15.5149 -5.82713
upperneck 11.891 -20.9431 6.27821
head 5.62895 -10.0785 1.31833
lclavicle 5.58149e-14 3.1185e-14 -1.12488e-29
lhumerus -42.5573 -19.1639 103.659
lradius 58.3267 -0 0
lwrist 23.3292 0 0
lhand -22.0105 -5.00598 0.00226877
lfingers 7.12502 -0 0
lthumb 4.39866 24.9277 0.002139
rclavicle 5.58149e-14 3.1185e-14 -1.12488e-29
rhumerus 17.6072 12.9366 -81.8257
rradius 136.965 -0 0
rwrist -49.2324 0 0
rhand -29.3498 -24.0213 0.0455247
rfingers 7.12502 -0 0
rthumb -2.68932 -53.9685 0.0433965
